<svg xmlns="http://www.w3.org/2000/svg" width="560" height="392" viewBox="0 0 560 392" font-family="'Inter','Helvetica Neue',Arial,'DejaVu Sans',sans-serif"><rect width="560" height="392" fill="#0a0c11"/><g stroke="#141a24" stroke-width="1"><line x1="34" y1="0" x2="34" y2="392"/><line x1="68" y1="0" x2="68" y2="392"/><line x1="102" y1="0" x2="102" y2="392"/><line x1="136" y1="0" x2="136" y2="392"/><line x1="170" y1="0" x2="170" y2="392"/><line x1="204" y1="0" x2="204" y2="392"/><line x1="238" y1="0" x2="238" y2="392"/><line x1="272" y1="0" x2="272" y2="392"/><line x1="306" y1="0" x2="306" y2="392"/><line x1="340" y1="0" x2="340" y2="392"/><line x1="374" y1="0" x2="374" y2="392"/><line x1="408" y1="0" x2="408" y2="392"/><line x1="442" y1="0" x2="442" y2="392"/><line x1="476" y1="0" x2="476" y2="392"/><line x1="510" y1="0" x2="510" y2="392"/><line x1="544" y1="0" x2="544" y2="392"/><line x1="0" y1="34" x2="560" y2="34"/><line x1="0" y1="68" x2="560" y2="68"/><line x1="0" y1="102" x2="560" y2="102"/><line x1="0" y1="136" x2="560" y2="136"/><line x1="0" y1="170" x2="560" y2="170"/><line x1="0" y1="204" x2="560" y2="204"/><line x1="0" y1="238" x2="560" y2="238"/><line x1="0" y1="272" x2="560" y2="272"/><line x1="0" y1="306" x2="560" y2="306"/><line x1="0" y1="340" x2="560" y2="340"/><line x1="0" y1="374" x2="560" y2="374"/></g><rect x="8" y="8" width="544" height="376" fill="none" stroke="#232a36" stroke-width="1"/><path d="M 8 15 L 8 8 L 15 8" stroke="#4db8e8" stroke-width="1.4" fill="none"/><path d="M 552 15 L 552 8 L 545 8" stroke="#4db8e8" stroke-width="1.4" fill="none"/><path d="M 8 377 L 8 384 L 15 384" stroke="#4db8e8" stroke-width="1.4" fill="none"/><path d="M 552 377 L 552 384 L 545 384" stroke="#4db8e8" stroke-width="1.4" fill="none"/><text x="20" y="18" font-size="8.5" font-weight="bold" fill="#4db8e8" text-anchor="start" font-family="'SF Mono','DejaVu Sans Mono',ui-monospace,Menlo,monospace" letter-spacing="0.24em">SYNERGIC BOND</text><path d="M 528 12 l 6 6 l -6 6 l -6 -6 z" fill="none" stroke="#63d39b" stroke-width="1.2"/><text x="20" y="40" font-size="16" font-weight="bold" fill="#f4ecd9" text-anchor="start" font-family="'Georgia','Times New Roman',serif">Electrolysis of acidified water  —  Hofmann voltameter</text><line x1="20" y1="42" x2="540" y2="42" stroke="#232a36" stroke-width="1"/><g transform="translate(0,34)"><rect x="258" y="60" width="44" height="46" rx="6" fill="rgba(120,190,235,0.08)" stroke="#4db8e8" stroke-width="2"/><text x="280.0" y="50.0" font-size="8.6" font-weight="normal" fill="#4db8e8" text-anchor="middle">dilute H₂SO₄  (pure water barely conducts)</text><rect x="162" y="96" width="44" height="180" rx="6" fill="rgba(120,190,235,0.08)" stroke="#4db8e8" stroke-width="2"/><rect x="165" y="99" width="38" height="46" rx="3" fill="rgba(90,175,225,0.20)" stroke="none" stroke-width="1.6"/><text x="184.0" y="126.0" font-size="12" font-weight="bold" fill="#4db8e8" text-anchor="middle">O₂</text><path d="M 184.0 276.0 L 184.0 292.0 L 280.0 292.0 L 280.0 106.0" fill="none" stroke="#dbe3ef" stroke-width="1.8" stroke-linejoin="round"/><line x1="184.0" y1="276.0" x2="184.0" y2="300.0" stroke="#5b6675" stroke-width="2.4" stroke-linecap="round"/><text x="184.0" y="316.0" font-size="9" font-weight="normal" fill="#8b98ac" text-anchor="middle">anode (+)</text><rect x="354" y="96" width="44" height="180" rx="6" fill="rgba(120,190,235,0.08)" stroke="#4db8e8" stroke-width="2"/><rect x="357" y="99" width="38" height="92" rx="3" fill="rgba(90,175,225,0.20)" stroke="none" stroke-width="1.6"/><text x="376.0" y="149.0" font-size="12" font-weight="bold" fill="#63d39b" text-anchor="middle">H₂</text><path d="M 376.0 276.0 L 376.0 292.0 L 280.0 292.0 L 280.0 106.0" fill="none" stroke="#dbe3ef" stroke-width="1.8" stroke-linejoin="round"/><line x1="376.0" y1="276.0" x2="376.0" y2="300.0" stroke="#5b6675" stroke-width="2.4" stroke-linecap="round"/><text x="376.0" y="316.0" font-size="9" font-weight="normal" fill="#8b98ac" text-anchor="middle">cathode (-)</text><text x="280.0" y="336.0" font-size="12" font-weight="bold" fill="#dbe3ef" text-anchor="middle">2 H₂O → 2 H₂ + O₂      V(H₂) : V(O₂) = 2 : 1</text></g></svg>