<svg xmlns="http://www.w3.org/2000/svg" width="620" height="410" viewBox="0 0 620 410" font-family="'Inter','Helvetica Neue',Arial,'DejaVu Sans',sans-serif"><rect width="620" height="410" fill="#0a0c11"/><g stroke="#141a24" stroke-width="1"><line x1="34" y1="0" x2="34" y2="410"/><line x1="68" y1="0" x2="68" y2="410"/><line x1="102" y1="0" x2="102" y2="410"/><line x1="136" y1="0" x2="136" y2="410"/><line x1="170" y1="0" x2="170" y2="410"/><line x1="204" y1="0" x2="204" y2="410"/><line x1="238" y1="0" x2="238" y2="410"/><line x1="272" y1="0" x2="272" y2="410"/><line x1="306" y1="0" x2="306" y2="410"/><line x1="340" y1="0" x2="340" y2="410"/><line x1="374" y1="0" x2="374" y2="410"/><line x1="408" y1="0" x2="408" y2="410"/><line x1="442" y1="0" x2="442" y2="410"/><line x1="476" y1="0" x2="476" y2="410"/><line x1="510" y1="0" x2="510" y2="410"/><line x1="544" y1="0" x2="544" y2="410"/><line x1="578" y1="0" x2="578" y2="410"/><line x1="612" y1="0" x2="612" y2="410"/><line x1="0" y1="34" x2="620" y2="34"/><line x1="0" y1="68" x2="620" y2="68"/><line x1="0" y1="102" x2="620" y2="102"/><line x1="0" y1="136" x2="620" y2="136"/><line x1="0" y1="170" x2="620" y2="170"/><line x1="0" y1="204" x2="620" y2="204"/><line x1="0" y1="238" x2="620" y2="238"/><line x1="0" y1="272" x2="620" y2="272"/><line x1="0" y1="306" x2="620" y2="306"/><line x1="0" y1="340" x2="620" y2="340"/><line x1="0" y1="374" x2="620" y2="374"/><line x1="0" y1="408" x2="620" y2="408"/></g><rect x="8" y="8" width="604" height="394" fill="none" stroke="#232a36" stroke-width="1"/><path d="M 8 15 L 8 8 L 15 8" stroke="#4db8e8" stroke-width="1.4" fill="none"/><path d="M 612 15 L 612 8 L 605 8" stroke="#4db8e8" stroke-width="1.4" fill="none"/><path d="M 8 395 L 8 402 L 15 402" stroke="#4db8e8" stroke-width="1.4" fill="none"/><path d="M 612 395 L 612 402 L 605 402" stroke="#4db8e8" stroke-width="1.4" fill="none"/><text x="20" y="18" font-size="8.5" font-weight="bold" fill="#4db8e8" text-anchor="start" font-family="'SF Mono','DejaVu Sans Mono',ui-monospace,Menlo,monospace" letter-spacing="0.24em">SYNERGIC BOND</text><path d="M 588 12 l 6 6 l -6 6 l -6 -6 z" fill="none" stroke="#63d39b" stroke-width="1.2"/><text x="20" y="40" font-size="16" font-weight="bold" fill="#f4ecd9" text-anchor="start" font-family="'Georgia','Times New Roman',serif">Laboratory preparation of dihydrogen</text><line x1="20" y1="42" x2="600" y2="42" stroke="#232a36" stroke-width="1"/><g transform="translate(0,34)"><path d="M 142.5 177.8 A 46 46 0 1 0 157.5 177.8" fill="rgba(120,190,235,0.08)" stroke="#4db8e8" stroke-width="2" stroke-linejoin="round"/><line x1="142.5" y1="177.8" x2="142.5" y2="100.0" stroke="#4db8e8" stroke-width="2" stroke-linecap="round"/><line x1="157.5" y1="177.8" x2="157.5" y2="100.0" stroke="#4db8e8" stroke-width="2" stroke-linecap="round"/><path d="M 104.46000000000001 210 A 46 46 0 0 0 195.54 210 L 195.54 218.28 L 104.46000000000001 218.28 Z" fill="rgba(80,180,232,0.26)" stroke="none"/><text x="150.0" y="262.0" font-size="10" font-weight="normal" fill="#dbe3ef" text-anchor="middle">granulated zinc  +  dil. H2SO4</text><line x1="134.0" y1="296.0" x2="166.0" y2="296.0" stroke="#93a1b5" stroke-width="2.5" stroke-linecap="round"/><line x1="143.0" y1="278.0" x2="143.0" y2="296.0" stroke="#93a1b5" stroke-width="2" stroke-linecap="round"/><line x1="157.0" y1="278.0" x2="157.0" y2="296.0" stroke="#93a1b5" stroke-width="2" stroke-linecap="round"/><path d="M 142 278 Q 150 246 158 278 Z" fill="#f3b64b" fill-opacity="0.55" stroke="#f3b64b" stroke-width="1.2"/><path d="M 146 278 Q 150 262 154 278 Z" fill="#4db8e8" fill-opacity="0.7" stroke="none"/><line x1="138.0" y1="185.0" x2="138.0" y2="92.0" stroke="#4db8e8" stroke-width="2" stroke-linecap="round"/><path d="M 124 92 Q 138 66 152 92 Z" fill="rgba(120,190,235,0.08)" stroke="#4db8e8" stroke-width="2" stroke-linejoin="round"/><text x="138.0" y="58.0" font-size="8.6" font-weight="normal" fill="#4db8e8" text-anchor="middle">thistle funnel</text><path d="M 162.0 150.0 L 162.0 108.0 L 360.0 108.0 L 360.0 150.0" fill="none" stroke="#dbe3ef" stroke-width="2" stroke-linejoin="round"/><rect x="325.0" y="250" width="210" height="60" rx="3" fill="none" stroke="#4db8e8" stroke-width="2"/><rect x="327.0" y="260" width="206" height="48" rx="2" fill="rgba(80,180,232,0.26)" stroke="none"/><path d="M 333.0 266 Q 430 258 527.0 266" fill="none" stroke="#4db8e8" stroke-width="1.3" stroke-linejoin="round"/><rect x="400.0" y="150" width="60" height="100" rx="2" fill="rgba(120,190,235,0.08)" stroke="#4db8e8" stroke-width="2"/><line x1="397.0" y1="250.0" x2="463.0" y2="250.0" stroke="#4db8e8" stroke-width="3" stroke-linecap="round"/><text x="430.0" y="205.0" font-size="13" font-weight="bold" fill="#63d39b" text-anchor="middle">H2</text><path d="M 360.0 150.0 L 360.0 210.0 L 418.0 210.0 L 418.0 236.0" fill="none" stroke="#dbe3ef" stroke-width="2" stroke-linejoin="round"/><text x="430.0" y="296.0" font-size="8.6" font-weight="normal" fill="#4db8e8" text-anchor="middle">downward displacement of water</text><text x="310.0" y="330.0" font-size="12.5" font-weight="bold" fill="#dbe3ef" text-anchor="middle">Zn  +  H2SO4  -&gt;  ZnSO4  +  H2</text><text x="310.0" y="350.0" font-size="9" font-weight="normal" fill="#8b98ac" text-anchor="middle">crude H2 carries AsH3 / PH3 / H2S from the zinc — scrub through KOH then AgNO3</text></g></svg>