<svg xmlns="http://www.w3.org/2000/svg" width="880" height="434" viewBox="0 0 880 434" font-family="'Inter','Helvetica Neue',Arial,'DejaVu Sans',sans-serif"><rect width="880" height="434" fill="#0a0c11"/><g stroke="#141a24" stroke-width="1"><line x1="34" y1="0" x2="34" y2="434"/><line x1="68" y1="0" x2="68" y2="434"/><line x1="102" y1="0" x2="102" y2="434"/><line x1="136" y1="0" x2="136" y2="434"/><line x1="170" y1="0" x2="170" y2="434"/><line x1="204" y1="0" x2="204" y2="434"/><line x1="238" y1="0" x2="238" y2="434"/><line x1="272" y1="0" x2="272" y2="434"/><line x1="306" y1="0" x2="306" y2="434"/><line x1="340" y1="0" x2="340" y2="434"/><line x1="374" y1="0" x2="374" y2="434"/><line x1="408" y1="0" x2="408" y2="434"/><line x1="442" y1="0" x2="442" y2="434"/><line x1="476" y1="0" x2="476" y2="434"/><line x1="510" y1="0" x2="510" y2="434"/><line x1="544" y1="0" x2="544" y2="434"/><line x1="578" y1="0" x2="578" y2="434"/><line x1="612" y1="0" x2="612" y2="434"/><line x1="646" y1="0" x2="646" y2="434"/><line x1="680" y1="0" x2="680" y2="434"/><line x1="714" y1="0" x2="714" y2="434"/><line x1="748" y1="0" x2="748" y2="434"/><line x1="782" y1="0" x2="782" y2="434"/><line x1="816" y1="0" x2="816" y2="434"/><line x1="850" y1="0" x2="850" y2="434"/><line x1="0" y1="34" x2="880" y2="34"/><line x1="0" y1="68" x2="880" y2="68"/><line x1="0" y1="102" x2="880" y2="102"/><line x1="0" y1="136" x2="880" y2="136"/><line x1="0" y1="170" x2="880" y2="170"/><line x1="0" y1="204" x2="880" y2="204"/><line x1="0" y1="238" x2="880" y2="238"/><line x1="0" y1="272" x2="880" y2="272"/><line x1="0" y1="306" x2="880" y2="306"/><line x1="0" y1="340" x2="880" y2="340"/><line x1="0" y1="374" x2="880" y2="374"/><line x1="0" y1="408" x2="880" y2="408"/></g><rect x="8" y="8" width="864" height="418" fill="none" stroke="#232a36" stroke-width="1"/><path d="M 8 15 L 8 8 L 15 8" stroke="#4db8e8" stroke-width="1.4" fill="none"/><path d="M 872 15 L 872 8 L 865 8" stroke="#4db8e8" stroke-width="1.4" fill="none"/><path d="M 8 419 L 8 426 L 15 426" stroke="#4db8e8" stroke-width="1.4" fill="none"/><path d="M 872 419 L 872 426 L 865 426" stroke="#4db8e8" stroke-width="1.4" fill="none"/><text x="20" y="18" font-size="8.5" font-weight="bold" fill="#4db8e8" text-anchor="start" font-family="'SF Mono','DejaVu Sans Mono',ui-monospace,Menlo,monospace" letter-spacing="0.24em">SYNERGIC BOND</text><path d="M 848 12 l 6 6 l -6 6 l -6 -6 z" fill="none" stroke="#63d39b" stroke-width="1.2"/><text x="20" y="40" font-size="16" font-weight="bold" fill="#f4ecd9" text-anchor="start" font-family="'Georgia','Times New Roman',serif">Allotropes of sulfur</text><line x1="20" y1="42" x2="860" y2="42" stroke="#232a36" stroke-width="1"/><g transform="translate(0,34)"><rect x="30" y="56" width="250" height="300" rx="8" fill="#0f1219" stroke="#232a36" stroke-width="1.2"/><text x="44" y="76" font-size="10.5" font-weight="bold" fill="#f4ecd9">Rhombic (α) &amp; Monoclinic (β)</text><text x="44" y="90" font-size="7.8" fill="#93a1b5">both built from cyclo-S₈ crowns</text><line x1="197.4" y1="172.2" x2="191.4" y2="188.2" stroke="#e8c65a" stroke-width="2.4" stroke-linecap="round"/><line x1="174.7" y1="195.6" x2="162.1" y2="190.7" stroke="#e8c65a" stroke-width="2.4" stroke-linecap="round"/><line x1="137.9" y1="190.7" x2="125.3" y2="195.6" stroke="#e8c65a" stroke-width="2.4" stroke-linecap="round"/><line x1="108.6" y1="188.2" x2="102.6" y2="172.2" stroke="#e8c65a" stroke-width="2.4" stroke-linecap="round"/><line x1="110.6" y1="163.0" x2="100.6" y2="160.6" stroke="#e8c65a" stroke-width="2.4" stroke-linecap="round"/><line x1="123.4" y1="155.5" x2="139.9" y2="142.2" stroke="#e8c65a" stroke-width="2.4" stroke-linecap="round"/><line x1="160.1" y1="142.2" x2="176.6" y2="155.5" stroke="#e8c65a" stroke-width="2.4" stroke-linecap="round"/><line x1="199.4" y1="160.6" x2="189.4" y2="163.0" stroke="#e8c65a" stroke-width="2.4" stroke-linecap="round"/><circle cx="202.0" cy="160.0" r="9" fill="#241f0d" stroke="#f3d152" stroke-width="1.8"/><text x="202.0" y="162.8" font-size="8" font-weight="bold" fill="#f3d152" text-anchor="middle">S</text><circle cx="186.8" cy="200.4" r="9" fill="#241f0d" stroke="#f3d152" stroke-width="1.8"/><text x="186.8" y="203.2" font-size="8" font-weight="bold" fill="#f3d152" text-anchor="middle">S</text><circle cx="150.0" cy="186.0" r="9" fill="#241f0d" stroke="#f3d152" stroke-width="1.8"/><text x="150.0" y="188.8" font-size="8" font-weight="bold" fill="#f3d152" text-anchor="middle">S</text><circle cx="113.2" cy="200.4" r="9" fill="#241f0d" stroke="#f3d152" stroke-width="1.8"/><text x="113.2" y="203.2" font-size="8" font-weight="bold" fill="#f3d152" text-anchor="middle">S</text><circle cx="98.0" cy="160.0" r="9" fill="#241f0d" stroke="#f3d152" stroke-width="1.8"/><text x="98.0" y="162.8" font-size="8" font-weight="bold" fill="#f3d152" text-anchor="middle">S</text><circle cx="113.2" cy="163.6" r="9" fill="#241f0d" stroke="#f3d152" stroke-width="1.8"/><text x="113.2" y="166.4" font-size="8" font-weight="bold" fill="#f3d152" text-anchor="middle">S</text><circle cx="150.0" cy="134.0" r="9" fill="#241f0d" stroke="#f3d152" stroke-width="1.8"/><text x="150.0" y="136.8" font-size="8" font-weight="bold" fill="#f3d152" text-anchor="middle">S</text><circle cx="186.8" cy="163.6" r="9" fill="#241f0d" stroke="#f3d152" stroke-width="1.8"/><text x="186.8" y="166.4" font-size="8" font-weight="bold" fill="#f3d152" text-anchor="middle">S</text><text x="46" y="264" font-size="7.8" fill="#93a1b5">stable below 369 K</text><text x="264" y="264" font-size="7.8" fill="#dbe3ef" text-anchor="end">α, rhombic</text><text x="46" y="277" font-size="7.8" fill="#93a1b5">stable 369–392 K</text><text x="264" y="277" font-size="7.8" fill="#dbe3ef" text-anchor="end">β, monoclinic</text><text x="46" y="290" font-size="7.8" fill="#93a1b5">above 392 K</text><text x="264" y="290" font-size="7.8" fill="#dbe3ef" text-anchor="end">both melt</text><rect x="300" y="56" width="260" height="300" rx="8" fill="#0f1219" stroke="#232a36" stroke-width="1.2"/><text x="314" y="76" font-size="10.5" font-weight="bold" fill="#f4ecd9">Plastic sulfur, Sμ</text><text x="314" y="90" font-size="7.8" fill="#93a1b5">quenched from boiling S — amorphous</text><line x1="348.5" y1="175.9" x2="355.5" y2="184.1" stroke="#e8c65a" stroke-width="2.4" stroke-linecap="round"/><line x1="372.5" y1="184.1" x2="379.5" y2="175.9" stroke="#e8c65a" stroke-width="2.4" stroke-linecap="round"/><line x1="396.5" y1="175.9" x2="403.5" y2="184.1" stroke="#e8c65a" stroke-width="2.4" stroke-linecap="round"/><line x1="420.5" y1="184.1" x2="427.5" y2="175.9" stroke="#e8c65a" stroke-width="2.4" stroke-linecap="round"/><line x1="444.5" y1="175.9" x2="451.5" y2="184.1" stroke="#e8c65a" stroke-width="2.4" stroke-linecap="round"/><line x1="468.5" y1="184.1" x2="475.5" y2="175.9" stroke="#e8c65a" stroke-width="2.4" stroke-linecap="round"/><line x1="492.5" y1="175.9" x2="499.5" y2="184.1" stroke="#e8c65a" stroke-width="2.4" stroke-linecap="round"/><line x1="516.5" y1="184.1" x2="523.5" y2="175.9" stroke="#e8c65a" stroke-width="2.4" stroke-linecap="round"/><circle cx="340.0" cy="166.0" r="8" fill="#241f0d" stroke="#f3d152" stroke-width="1.8"/><text x="340.0" y="168.4" font-size="7" font-weight="bold" fill="#f3d152" text-anchor="middle">S</text><circle cx="364.0" cy="194.0" r="8" fill="#241f0d" stroke="#f3d152" stroke-width="1.8"/><text x="364.0" y="196.4" font-size="7" font-weight="bold" fill="#f3d152" text-anchor="middle">S</text><circle cx="388.0" cy="166.0" r="8" fill="#241f0d" stroke="#f3d152" stroke-width="1.8"/><text x="388.0" y="168.4" font-size="7" font-weight="bold" fill="#f3d152" text-anchor="middle">S</text><circle cx="412.0" cy="194.0" r="8" fill="#241f0d" stroke="#f3d152" stroke-width="1.8"/><text x="412.0" y="196.4" font-size="7" font-weight="bold" fill="#f3d152" text-anchor="middle">S</text><circle cx="436.0" cy="166.0" r="8" fill="#241f0d" stroke="#f3d152" stroke-width="1.8"/><text x="436.0" y="168.4" font-size="7" font-weight="bold" fill="#f3d152" text-anchor="middle">S</text><circle cx="460.0" cy="194.0" r="8" fill="#241f0d" stroke="#f3d152" stroke-width="1.8"/><text x="460.0" y="196.4" font-size="7" font-weight="bold" fill="#f3d152" text-anchor="middle">S</text><circle cx="484.0" cy="166.0" r="8" fill="#241f0d" stroke="#f3d152" stroke-width="1.8"/><text x="484.0" y="168.4" font-size="7" font-weight="bold" fill="#f3d152" text-anchor="middle">S</text><circle cx="508.0" cy="194.0" r="8" fill="#241f0d" stroke="#f3d152" stroke-width="1.8"/><text x="508.0" y="196.4" font-size="7" font-weight="bold" fill="#f3d152" text-anchor="middle">S</text><circle cx="532.0" cy="166.0" r="8" fill="#241f0d" stroke="#f3d152" stroke-width="1.8"/><text x="532.0" y="168.4" font-size="7" font-weight="bold" fill="#f3d152" text-anchor="middle">S</text><text x="316" y="264" font-size="7.8" fill="#93a1b5">structure</text><text x="544" y="264" font-size="7.8" fill="#dbe3ef" text-anchor="end">long helical Sₙ chains</text><text x="316" y="277" font-size="7.8" fill="#93a1b5">property</text><text x="544" y="277" font-size="7.8" fill="#dbe3ef" text-anchor="end">rubbery, elastic</text><text x="316" y="290" font-size="7.8" fill="#93a1b5">stability</text><text x="544" y="290" font-size="7.8" fill="#dbe3ef" text-anchor="end">reverts to rhombic S₈ on standing</text><rect x="580" y="56" width="270" height="300" rx="8" fill="#0f1219" stroke="#232a36" stroke-width="1.2"/><text x="594" y="76" font-size="10.5" font-weight="bold" fill="#f4ecd9">cyclo-S₆ (chair)</text><text x="594" y="90" font-size="7.8" fill="#93a1b5">from Na₂S₂O₃ + cold conc. HCl</text><line x1="754.1" y1="182.0" x2="741.9" y2="212.1" stroke="#e8c65a" stroke-width="2.4" stroke-linecap="round"/><line x1="724.8" y1="219.7" x2="705.2" y2="212.5" stroke="#e8c65a" stroke-width="2.4" stroke-linecap="round"/><line x1="683.8" y1="198.9" x2="680.2" y2="195.2" stroke="#e8c65a" stroke-width="2.4" stroke-linecap="round"/><line x1="675.9" y1="174.0" x2="688.1" y2="143.9" stroke="#e8c65a" stroke-width="2.4" stroke-linecap="round"/><line x1="705.2" y1="136.3" x2="724.8" y2="143.5" stroke="#e8c65a" stroke-width="2.4" stroke-linecap="round"/><line x1="746.2" y1="157.1" x2="749.8" y2="160.8" stroke="#e8c65a" stroke-width="2.4" stroke-linecap="round"/><circle cx="759.0" cy="170.0" r="9" fill="#241f0d" stroke="#f3d152" stroke-width="1.8"/><text x="759.0" y="172.8" font-size="8" font-weight="bold" fill="#f3d152" text-anchor="middle">S</text><circle cx="737.0" cy="224.1" r="9" fill="#241f0d" stroke="#f3d152" stroke-width="1.8"/><text x="737.0" y="226.9" font-size="8" font-weight="bold" fill="#f3d152" text-anchor="middle">S</text><circle cx="693.0" cy="208.1" r="9" fill="#241f0d" stroke="#f3d152" stroke-width="1.8"/><text x="693.0" y="210.9" font-size="8" font-weight="bold" fill="#f3d152" text-anchor="middle">S</text><circle cx="671.0" cy="186.0" r="9" fill="#241f0d" stroke="#f3d152" stroke-width="1.8"/><text x="671.0" y="188.8" font-size="8" font-weight="bold" fill="#f3d152" text-anchor="middle">S</text><circle cx="693.0" cy="131.9" r="9" fill="#241f0d" stroke="#f3d152" stroke-width="1.8"/><text x="693.0" y="134.7" font-size="8" font-weight="bold" fill="#f3d152" text-anchor="middle">S</text><circle cx="737.0" cy="147.9" r="9" fill="#241f0d" stroke="#f3d152" stroke-width="1.8"/><text x="737.0" y="150.7" font-size="8" font-weight="bold" fill="#f3d152" text-anchor="middle">S</text><text x="596" y="264" font-size="7.8" fill="#93a1b5">shape</text><text x="834" y="264" font-size="7.8" fill="#dbe3ef" text-anchor="end">chair, like cyclohexane</text><text x="596" y="277" font-size="7.8" fill="#93a1b5">stability</text><text x="834" y="277" font-size="7.8" fill="#dbe3ef" text-anchor="end">less stable than S₈</text><text x="440.0" y="384.0" font-size="8.6" font-weight="bold" fill="#dbe3ef" text-anchor="middle">S₂ vapour (&gt;1000 K) is diatomic and paramagnetic, exactly like O₂ — two unpaired electrons in π*</text></g></svg>