<svg xmlns="http://www.w3.org/2000/svg" width="560" height="374" viewBox="0 0 560 374" font-family="'Inter','Helvetica Neue',Arial,'DejaVu Sans',sans-serif"><rect width="560" height="374" fill="#0a0c11"/><g stroke="#141a24" stroke-width="1"><line x1="34" y1="0" x2="34" y2="374"/><line x1="68" y1="0" x2="68" y2="374"/><line x1="102" y1="0" x2="102" y2="374"/><line x1="136" y1="0" x2="136" y2="374"/><line x1="170" y1="0" x2="170" y2="374"/><line x1="204" y1="0" x2="204" y2="374"/><line x1="238" y1="0" x2="238" y2="374"/><line x1="272" y1="0" x2="272" y2="374"/><line x1="306" y1="0" x2="306" y2="374"/><line x1="340" y1="0" x2="340" y2="374"/><line x1="374" y1="0" x2="374" y2="374"/><line x1="408" y1="0" x2="408" y2="374"/><line x1="442" y1="0" x2="442" y2="374"/><line x1="476" y1="0" x2="476" y2="374"/><line x1="510" y1="0" x2="510" y2="374"/><line x1="544" y1="0" x2="544" y2="374"/><line x1="0" y1="34" x2="560" y2="34"/><line x1="0" y1="68" x2="560" y2="68"/><line x1="0" y1="102" x2="560" y2="102"/><line x1="0" y1="136" x2="560" y2="136"/><line x1="0" y1="170" x2="560" y2="170"/><line x1="0" y1="204" x2="560" y2="204"/><line x1="0" y1="238" x2="560" y2="238"/><line x1="0" y1="272" x2="560" y2="272"/><line x1="0" y1="306" x2="560" y2="306"/><line x1="0" y1="340" x2="560" y2="340"/></g><rect x="8" y="8" width="544" height="358" fill="none" stroke="#232a36" stroke-width="1"/><path d="M 8 15 L 8 8 L 15 8" stroke="#4db8e8" stroke-width="1.4" fill="none"/><path d="M 552 15 L 552 8 L 545 8" stroke="#4db8e8" stroke-width="1.4" fill="none"/><path d="M 8 359 L 8 366 L 15 366" stroke="#4db8e8" stroke-width="1.4" fill="none"/><path d="M 552 359 L 552 366 L 545 366" stroke="#4db8e8" stroke-width="1.4" fill="none"/><text x="20" y="18" font-size="8.5" font-weight="bold" fill="#4db8e8" text-anchor="start" font-family="'SF Mono','DejaVu Sans Mono',ui-monospace,Menlo,monospace" letter-spacing="0.24em">SYNERGIC BOND</text><path d="M 528 12 l 6 6 l -6 6 l -6 -6 z" fill="none" stroke="#63d39b" stroke-width="1.2"/><text x="20" y="40" font-size="16" font-weight="bold" fill="#f4ecd9" text-anchor="start" font-family="'Georgia','Times New Roman',serif">Frasch process  (mining native sulphur)</text><line x1="20" y1="42" x2="540" y2="42" stroke="#232a36" stroke-width="1"/><g transform="translate(0,34)"><rect x="120" y="90" width="320" height="210" rx="4" fill="#1e1a12" stroke="#232a36" stroke-width="1.4"/><rect x="120" y="220" width="320" height="80" rx="4" fill="#e6d3b0" stroke="#232a36" stroke-width="1.4"/><text x="280.0" y="260.0" font-size="9.5" font-weight="normal" fill="#8b98ac" text-anchor="middle">sulphur-bearing rock</text><rect x="265.0" y="90" width="30" height="150" rx="4" fill="#d0e6ff" stroke="#8b98ac" stroke-width="1"/><rect x="273.0" y="90" width="14" height="150" rx="4" fill="rgba(240,190,90,0.30)" stroke="#8b98ac" stroke-width="1"/><rect x="277.0" y="90" width="6" height="150" rx="4" fill="#20262f" stroke="#8b98ac" stroke-width="1"/><text x="455.0" y="110.0" font-size="8.5" font-weight="normal" fill="#39414f" text-anchor="start">compressed air (in)</text><text x="455.0" y="150.0" font-size="8.5" font-weight="normal" fill="#39414f" text-anchor="start">superheated water (in)</text><text x="455.0" y="190.0" font-size="8.5" font-weight="normal" fill="#39414f" text-anchor="start">molten sulphur + froth (out)</text><path d="M 280.0 90.0 L 280.0 60.0 L 200.0 60.0" fill="none" stroke="#dbe3ef" stroke-width="2" stroke-linejoin="round"/><text x="190.0" y="60.0" font-size="9" font-weight="normal" fill="#ff8f6e" text-anchor="end">S out</text><text x="280.0" y="55.0" font-size="11.5" font-weight="bold" fill="#dbe3ef" text-anchor="middle">three concentric pipes sunk into the deposit</text><text x="280.0" y="325.0" font-size="8.8" font-weight="normal" fill="#39414f" text-anchor="middle">hot water melts S (m.p. 385 K); compressed air froths the molten S up the middle pipe -&gt; ~99.5% pure</text></g></svg>