<svg xmlns="http://www.w3.org/2000/svg" width="520" height="300" viewBox="0 0 520 300" font-family="DejaVu Sans, Arial, sans-serif"><rect x="0" y="0" width="520" height="300" fill="white"/><text x="260.0" y="22.0" font-family="DejaVu Sans, Arial, sans-serif" font-size="17" font-weight="bold" fill="#111" text-anchor="middle">SF6 (octahedral, inert) and SF4 (see-saw)</text><line x1="130.0" y1="127.0" x2="130.0" y2="73.0" stroke="#111" stroke-width="2.2"/><circle cx="130.0" cy="60.0" r="11" fill="#e8ffe8" stroke="#111" stroke-width="1.6"/><text x="130.0" y="63.5" font-family="DejaVu Sans, Arial, sans-serif" font-size="10" font-weight="bold" fill="#111" text-anchor="middle">F</text><line x1="130.0" y1="153.0" x2="130.0" y2="207.0" stroke="#111" stroke-width="2.2"/><circle cx="130.0" cy="220.0" r="11" fill="#e8ffe8" stroke="#111" stroke-width="1.6"/><text x="130.0" y="223.5" font-family="DejaVu Sans, Arial, sans-serif" font-size="10" font-weight="bold" fill="#111" text-anchor="middle">F</text><line x1="117.0" y1="140.0" x2="73.0" y2="140.0" stroke="#111" stroke-width="2.2"/><circle cx="60.0" cy="140.0" r="11" fill="#e8ffe8" stroke="#111" stroke-width="1.6"/><text x="60.0" y="143.5" font-family="DejaVu Sans, Arial, sans-serif" font-size="10" font-weight="bold" fill="#111" text-anchor="middle">F</text><line x1="143.0" y1="140.0" x2="187.0" y2="140.0" stroke="#111" stroke-width="2.2"/><circle cx="200.0" cy="140.0" r="11" fill="#e8ffe8" stroke="#111" stroke-width="1.6"/><text x="200.0" y="143.5" font-family="DejaVu Sans, Arial, sans-serif" font-size="10" font-weight="bold" fill="#111" text-anchor="middle">F</text><line x1="120.8" y1="130.8" x2="104.2" y2="114.2" stroke="#111" stroke-width="2.2"/><circle cx="95.0" cy="105.0" r="11" fill="#e8ffe8" stroke="#111" stroke-width="1.6"/><text x="95.0" y="108.5" font-family="DejaVu Sans, Arial, sans-serif" font-size="10" font-weight="bold" fill="#111" text-anchor="middle">F</text><line x1="139.2" y1="149.2" x2="155.8" y2="165.8" stroke="#111" stroke-width="2.2"/><circle cx="165.0" cy="175.0" r="11" fill="#e8ffe8" stroke="#111" stroke-width="1.6"/><text x="165.0" y="178.5" font-family="DejaVu Sans, Arial, sans-serif" font-size="10" font-weight="bold" fill="#111" text-anchor="middle">F</text><circle cx="130.0" cy="140.0" r="13" fill="#fff2cc" stroke="#111" stroke-width="1.6"/><text x="130.0" y="145.2" font-family="DejaVu Sans, Arial, sans-serif" font-size="15" font-weight="bold" fill="#111" text-anchor="middle">S</text><text x="130.0" y="255.0" font-family="DejaVu Sans, Arial, sans-serif" font-size="10.5" font-weight="normal" fill="#333" text-anchor="middle">SF6:  6 bp, 0 lp, sp3d2</text><text x="130.0" y="272.0" font-family="DejaVu Sans, Arial, sans-serif" font-size="10" font-weight="normal" fill="#555" text-anchor="middle">KINETICALLY inert (S shielded &amp; saturated)</text><line x1="390.0" y1="127.0" x2="390.0" y2="68.0" stroke="#111" stroke-width="2.2"/><circle cx="390.0" cy="55.0" r="11" fill="#e8ffe8" stroke="#111" stroke-width="1.6"/><text x="390.0" y="58.5" font-family="DejaVu Sans, Arial, sans-serif" font-size="10" font-weight="bold" fill="#111" text-anchor="middle">F</text><line x1="390.0" y1="153.0" x2="390.0" y2="212.0" stroke="#111" stroke-width="2.2"/><circle cx="390.0" cy="225.0" r="11" fill="#e8ffe8" stroke="#111" stroke-width="1.6"/><text x="390.0" y="228.5" font-family="DejaVu Sans, Arial, sans-serif" font-size="10" font-weight="bold" fill="#111" text-anchor="middle">F</text><line x1="377.8" y1="144.4" x2="332.2" y2="160.6" stroke="#111" stroke-width="2.2"/><circle cx="320.0" cy="165.0" r="11" fill="#e8ffe8" stroke="#111" stroke-width="1.6"/><text x="320.0" y="168.5" font-family="DejaVu Sans, Arial, sans-serif" font-size="10" font-weight="bold" fill="#111" text-anchor="middle">F</text><line x1="402.2" y1="144.4" x2="447.8" y2="160.6" stroke="#111" stroke-width="2.2"/><circle cx="460.0" cy="165.0" r="11" fill="#e8ffe8" stroke="#111" stroke-width="1.6"/><text x="460.0" y="168.5" font-family="DejaVu Sans, Arial, sans-serif" font-size="10" font-weight="bold" fill="#111" text-anchor="middle">F</text><circle cx="390.0" cy="140.0" r="13" fill="#fff2cc" stroke="#111" stroke-width="1.6"/><text x="390.0" y="145.2" font-family="DejaVu Sans, Arial, sans-serif" font-size="15" font-weight="bold" fill="#111" text-anchor="middle">S</text><circle cx="374.0" cy="144.0" r="1.7" fill="#111"/><circle cx="374.0" cy="136.0" r="1.7" fill="#111"/><text x="390.0" y="255.0" font-family="DejaVu Sans, Arial, sans-serif" font-size="10.5" font-weight="normal" fill="#333" text-anchor="middle">SF4:  4 bp + 1 lp (equatorial), sp3d</text><text x="390.0" y="272.0" font-family="DejaVu Sans, Arial, sans-serif" font-size="10" font-weight="normal" fill="#555" text-anchor="middle">see-saw ;  fluorinating agent ;  no 'OF6' (O has no d)</text></svg>