<svg xmlns="http://www.w3.org/2000/svg" width="620" height="374" viewBox="0 0 620 374" font-family="'Inter','Helvetica Neue',Arial,'DejaVu Sans',sans-serif"><rect width="620" height="374" fill="#0a0c11"/><g stroke="#141a24" stroke-width="1"><line x1="34" y1="0" x2="34" y2="374"/><line x1="68" y1="0" x2="68" y2="374"/><line x1="102" y1="0" x2="102" y2="374"/><line x1="136" y1="0" x2="136" y2="374"/><line x1="170" y1="0" x2="170" y2="374"/><line x1="204" y1="0" x2="204" y2="374"/><line x1="238" y1="0" x2="238" y2="374"/><line x1="272" y1="0" x2="272" y2="374"/><line x1="306" y1="0" x2="306" y2="374"/><line x1="340" y1="0" x2="340" y2="374"/><line x1="374" y1="0" x2="374" y2="374"/><line x1="408" y1="0" x2="408" y2="374"/><line x1="442" y1="0" x2="442" y2="374"/><line x1="476" y1="0" x2="476" y2="374"/><line x1="510" y1="0" x2="510" y2="374"/><line x1="544" y1="0" x2="544" y2="374"/><line x1="578" y1="0" x2="578" y2="374"/><line x1="612" y1="0" x2="612" y2="374"/><line x1="0" y1="34" x2="620" y2="34"/><line x1="0" y1="68" x2="620" y2="68"/><line x1="0" y1="102" x2="620" y2="102"/><line x1="0" y1="136" x2="620" y2="136"/><line x1="0" y1="170" x2="620" y2="170"/><line x1="0" y1="204" x2="620" y2="204"/><line x1="0" y1="238" x2="620" y2="238"/><line x1="0" y1="272" x2="620" y2="272"/><line x1="0" y1="306" x2="620" y2="306"/><line x1="0" y1="340" x2="620" y2="340"/></g><rect x="8" y="8" width="604" height="358" fill="none" stroke="#232a36" stroke-width="1"/><path d="M 8 15 L 8 8 L 15 8" stroke="#4db8e8" stroke-width="1.4" fill="none"/><path d="M 612 15 L 612 8 L 605 8" stroke="#4db8e8" stroke-width="1.4" fill="none"/><path d="M 8 359 L 8 366 L 15 366" stroke="#4db8e8" stroke-width="1.4" fill="none"/><path d="M 612 359 L 612 366 L 605 366" stroke="#4db8e8" stroke-width="1.4" fill="none"/><text x="20" y="18" font-size="8.5" font-weight="bold" fill="#4db8e8" text-anchor="start" font-family="'SF Mono','DejaVu Sans Mono',ui-monospace,Menlo,monospace" letter-spacing="0.24em">SYNERGIC BOND</text><path d="M 588 12 l 6 6 l -6 6 l -6 -6 z" fill="none" stroke="#63d39b" stroke-width="1.2"/><text x="20" y="40" font-size="16" font-weight="bold" fill="#f4ecd9" text-anchor="start" font-family="'Georgia','Times New Roman',serif">Bleaching powder, Ca(OCl)Cl</text><line x1="20" y1="42" x2="600" y2="42" stroke="#232a36" stroke-width="1"/><g transform="translate(0,34)"><line x1="83.0" y1="150.0" x2="117.0" y2="150.0" stroke="#9fb0c6" stroke-width="2.4" stroke-linecap="round"/><line x1="143.0" y1="150.0" x2="207.0" y2="150.0" stroke="#9fb0c6" stroke-width="2.4" stroke-linecap="round"/><line x1="230.8" y1="142.8" x2="269.2" y2="117.2" stroke="#9fb0c6" stroke-width="2.4" stroke-linecap="round"/><circle cx="70.0" cy="150.0" r="13" fill="#0f2418" stroke="#7fe0a0" stroke-width="1.8"/><text x="70.0" y="153.8" font-size="11" font-weight="bold" fill="#7fe0a0" text-anchor="middle">Cl</text><circle cx="130.0" cy="150.0" r="13" fill="#161b24" stroke="#9fb0c6" stroke-width="1.8"/><text x="130.0" y="153.8" font-size="11" font-weight="bold" fill="#9fb0c6" text-anchor="middle">Ca</text><circle cx="220.0" cy="150.0" r="13" fill="#2a1416" stroke="#ff8f8f" stroke-width="1.8"/><text x="220.0" y="153.8" font-size="11" font-weight="bold" fill="#ff8f8f" text-anchor="middle">O</text><circle cx="280.0" cy="110.0" r="13" fill="#0f2418" stroke="#7fe0a0" stroke-width="1.8"/><text x="280.0" y="113.8" font-size="11" font-weight="bold" fill="#7fe0a0" text-anchor="middle">Cl</text><text x="220.0" y="60.0" font-size="9.5" font-weight="normal" fill="#dbe3ef" text-anchor="middle">a mixed salt — one Cl⁻ and one OCl⁻ per Ca²⁺</text><rect x="360" y="70" width="230" height="180" rx="8" fill="#0f1219" stroke="#232a36" stroke-width="1.3"/><text x="475.0" y="92.0" font-size="10" font-weight="bold" fill="#f4ecd9" text-anchor="middle">manufacture &amp; use</text><text x="386.3" y="121.0" font-size="8.6" font-weight="bold" fill="#f4ecd9" text-anchor="start">Ca(OH)₂ + Cl₂</text><line x1="455.5" y1="118.0" x2="485.5" y2="118.0" stroke="#4db8e8" stroke-width="1.8" stroke-linecap="round"/><line x1="485.5" y1="118.0" x2="478.2" y2="114.7" stroke="#4db8e8" stroke-width="1.8" stroke-linecap="round"/><line x1="485.5" y1="118.0" x2="478.2" y2="121.3" stroke="#4db8e8" stroke-width="1.8" stroke-linecap="round"/><text x="470.5" y="110.0" font-size="5.1" font-weight="normal" fill="#93a1b5" text-anchor="middle">313 K</text><text x="503.5" y="121.0" font-size="8.6" font-weight="bold" fill="#f4ecd9" text-anchor="start">Ca(OCl)Cl + H₂O</text><text x="376" y="156" font-size="7.8" fill="#93a1b5">available chlorine</text><text x="574" y="156" font-size="7.8" fill="#dbe3ef" text-anchor="end">35–38%</text><text x="376" y="172" font-size="7.8" fill="#93a1b5">bleaching agent</text><text x="574" y="172" font-size="7.8" fill="#dbe3ef" text-anchor="end">HOCl (from CO₂ + H₂O)</text><text x="475.0" y="200.0" font-size="7.8" font-weight="normal" fill="#93a1b5" text-anchor="middle">Ca(OCl)Cl + CO₂ + H₂O → CaCO₃ + Cl₂ + 2 HOCl</text><text x="475.0" y="216.0" font-size="7.6" font-weight="normal" fill="#93a1b5" text-anchor="middle">6 Ca(OCl)Cl → 5 CaCl₂ + Ca(ClO₃)₂  (Δ, disproportionation)</text><text x="475.0" y="232.0" font-size="7.6" font-weight="normal" fill="#93a1b5" text-anchor="middle">+ acetone → CHCl3 (haloform reaction)</text></g></svg>