<svg xmlns="http://www.w3.org/2000/svg" width="600" height="330" viewBox="0 0 600 330" font-family="DejaVu Sans, Arial, sans-serif"><rect x="0" y="0" width="600" height="330" fill="white"/><text x="300.0" y="22.0" font-family="DejaVu Sans, Arial, sans-serif" font-size="17" font-weight="bold" fill="#111" text-anchor="middle">Laboratory preparation of dinitrogen</text><path d="M 132.5 179.2 A 44 44 0 1 0 147.5 179.2" fill="#eef6ff" stroke="#111" stroke-width="2"/><line x1="132.5" y1="179.2" x2="132.5" y2="128.0" stroke="#111" stroke-width="2"/><line x1="147.5" y1="179.2" x2="147.5" y2="128.0" stroke="#111" stroke-width="2"/><path d="M 96.44 210 A 44 44 0 0 0 183.56 210 L 183.56 210.0 L 96.44 210.0 Z" fill="#bcd6ff" stroke="none" stroke-width="2.0"/><line x1="124.0" y1="284.0" x2="156.0" y2="284.0" stroke="#111" stroke-width="2.5"/><line x1="133.0" y1="266.0" x2="133.0" y2="284.0" stroke="#111" stroke-width="2"/><line x1="147.0" y1="266.0" x2="147.0" y2="284.0" stroke="#111" stroke-width="2"/><path d="M 132 266 Q 140 234 148 266 Z" fill="#ffbf5e" stroke="#e8990b" stroke-width="1.3"/><path d="M 136 266 Q 140 250 144 266 Z" fill="#8fd0ff" stroke="none" stroke-width="2.0"/><text x="140.0" y="300.0" font-family="DejaVu Sans, Arial, sans-serif" font-size="10" font-weight="normal" fill="#111" text-anchor="start">NH4Cl(aq) + NaNO2(aq),  warm gently</text><path d="M 140.0 128.0 L 140.0 120.0 L 300.0 120.0 L 300.0 235.0 L 360.0 235.0" fill="none" stroke="#111" stroke-width="2"/><rect x="345.0" y="232" width="170" height="76" rx="3" fill="none" stroke="#111" stroke-width="2"/><rect x="347.0" y="242" width="166" height="64" rx="2" fill="#dcecf7" stroke="none" stroke-width="1.6"/><path d="M 353.0 248 Q 430 240 507.0 248" fill="none" stroke="#8ab" stroke-width="1.4"/><rect x="403.0" y="150" width="54" height="90" rx="2" fill="#eef6ff" stroke="#111" stroke-width="2"/><line x1="400.0" y1="240.0" x2="460.0" y2="240.0" stroke="#111" stroke-width="3"/><text x="430.0" y="200.0" font-family="DejaVu Sans, Arial, sans-serif" font-size="13" font-weight="bold" fill="#2e7d32" text-anchor="middle">N2</text><path d="M 360.0 235.0 L 400.0 235.0 L 403.0 240.0" fill="none" stroke="#111" stroke-width="2"/><text x="430.0" y="315.0" font-family="DejaVu Sans, Arial, sans-serif" font-size="9.5" font-weight="normal" fill="#555" text-anchor="start">collected over water</text><text x="300.0" y="55.0" font-family="DejaVu Sans, Arial, sans-serif" font-size="12" font-weight="bold" fill="#111" text-anchor="start">NH4Cl + NaNO2  -&gt;  N2 + NaCl + 2 H2O</text><text x="300.0" y="74.0" font-family="DejaVu Sans, Arial, sans-serif" font-size="9.5" font-weight="normal" fill="#555" text-anchor="start">(gas bubbled through acidified K2Cr2O7 to remove NO / HNO3)</text></svg>