<svg xmlns="http://www.w3.org/2000/svg" width="600" height="284" viewBox="0 0 600 284" font-family="'Inter','Helvetica Neue',Arial,'DejaVu Sans',sans-serif"><rect width="600" height="284" fill="#0a0c11"/><g stroke="#141a24" stroke-width="1"><line x1="34" y1="0" x2="34" y2="284"/><line x1="68" y1="0" x2="68" y2="284"/><line x1="102" y1="0" x2="102" y2="284"/><line x1="136" y1="0" x2="136" y2="284"/><line x1="170" y1="0" x2="170" y2="284"/><line x1="204" y1="0" x2="204" y2="284"/><line x1="238" y1="0" x2="238" y2="284"/><line x1="272" y1="0" x2="272" y2="284"/><line x1="306" y1="0" x2="306" y2="284"/><line x1="340" y1="0" x2="340" y2="284"/><line x1="374" y1="0" x2="374" y2="284"/><line x1="408" y1="0" x2="408" y2="284"/><line x1="442" y1="0" x2="442" y2="284"/><line x1="476" y1="0" x2="476" y2="284"/><line x1="510" y1="0" x2="510" y2="284"/><line x1="544" y1="0" x2="544" y2="284"/><line x1="578" y1="0" x2="578" y2="284"/><line x1="0" y1="34" x2="600" y2="34"/><line x1="0" y1="68" x2="600" y2="68"/><line x1="0" y1="102" x2="600" y2="102"/><line x1="0" y1="136" x2="600" y2="136"/><line x1="0" y1="170" x2="600" y2="170"/><line x1="0" y1="204" x2="600" y2="204"/><line x1="0" y1="238" x2="600" y2="238"/><line x1="0" y1="272" x2="600" y2="272"/></g><rect x="8" y="8" width="584" height="268" fill="none" stroke="#232a36" stroke-width="1"/><path d="M 8 15 L 8 8 L 15 8" stroke="#4db8e8" stroke-width="1.4" fill="none"/><path d="M 592 15 L 592 8 L 585 8" stroke="#4db8e8" stroke-width="1.4" fill="none"/><path d="M 8 269 L 8 276 L 15 276" stroke="#4db8e8" stroke-width="1.4" fill="none"/><path d="M 592 269 L 592 276 L 585 276" stroke="#4db8e8" stroke-width="1.4" fill="none"/><text x="20" y="18" font-size="8.5" font-weight="bold" fill="#4db8e8" text-anchor="start" font-family="'SF Mono','DejaVu Sans Mono',ui-monospace,Menlo,monospace" letter-spacing="0.24em">SYNERGIC BOND</text><path d="M 568 12 l 6 6 l -6 6 l -6 -6 z" fill="none" stroke="#63d39b" stroke-width="1.2"/><text x="20" y="40" font-size="16" font-weight="bold" fill="#f4ecd9" text-anchor="start" font-family="'Georgia','Times New Roman',serif">The flame test  —  s-block cations</text><line x1="20" y1="42" x2="580" y2="42" stroke="#232a36" stroke-width="1"/><g transform="translate(0,34)"><line x1="94.0" y1="176.0" x2="126.0" y2="176.0" stroke="#93a1b5" stroke-width="2.5" stroke-linecap="round"/><line x1="103.0" y1="158.0" x2="103.0" y2="176.0" stroke="#93a1b5" stroke-width="2" stroke-linecap="round"/><line x1="117.0" y1="158.0" x2="117.0" y2="176.0" stroke="#93a1b5" stroke-width="2" stroke-linecap="round"/><path d="M 102 158 Q 110 126 118 158 Z" fill="#f3b64b" fill-opacity="0.55" stroke="#f3b64b" stroke-width="1.2"/><path d="M 106 158 Q 110 142 114 158 Z" fill="#4db8e8" fill-opacity="0.7" stroke="none"/><line x1="140.0" y1="150.0" x2="200.0" y2="108.0" stroke="#5b6675" stroke-width="2.4" stroke-linecap="round"/><text x="150.0" y="176.0" font-size="8.6" font-weight="normal" fill="#8b98ac" text-anchor="start">Pt / nichrome wire, moistened with conc. HCl</text><path d="M 240 118 Q 246 74 250 62 Q 254 74 260 118 Q 250 104 240 118 Z" fill="#ff8f6e" stroke="#ff8f6e" stroke-width="1" stroke-linejoin="round"/><text x="250.0" y="138.0" font-size="12" font-weight="bold" fill="#ff8f6e" text-anchor="middle">Li</text><text x="250.0" y="156.0" font-size="7.6" font-weight="normal" fill="#8b98ac" text-anchor="middle">crimson</text><path d="M 298 118 Q 304 74 308 62 Q 312 74 318 118 Q 308 104 298 118 Z" fill="#f3b64b" stroke="#f3b64b" stroke-width="1" stroke-linejoin="round"/><text x="308.0" y="138.0" font-size="12" font-weight="bold" fill="#f3b64b" text-anchor="middle">Na</text><text x="308.0" y="156.0" font-size="7.6" font-weight="normal" fill="#8b98ac" text-anchor="middle">golden yellow</text><path d="M 356 118 Q 362 74 366 62 Q 370 74 376 118 Q 366 104 356 118 Z" fill="#b79bff" stroke="#b79bff" stroke-width="1" stroke-linejoin="round"/><text x="366.0" y="138.0" font-size="12" font-weight="bold" fill="#b79bff" text-anchor="middle">K</text><text x="366.0" y="156.0" font-size="7.6" font-weight="normal" fill="#8b98ac" text-anchor="middle">lilac</text><path d="M 414 118 Q 420 74 424 62 Q 428 74 434 118 Q 424 104 414 118 Z" fill="#ff8f6e" stroke="#ff8f6e" stroke-width="1" stroke-linejoin="round"/><text x="424.0" y="138.0" font-size="12" font-weight="bold" fill="#ff8f6e" text-anchor="middle">Ca</text><text x="424.0" y="156.0" font-size="7.6" font-weight="normal" fill="#8b98ac" text-anchor="middle">brick red</text><path d="M 472 118 Q 478 74 482 62 Q 486 74 492 118 Q 482 104 472 118 Z" fill="#ff6b6b" stroke="#ff6b6b" stroke-width="1" stroke-linejoin="round"/><text x="482.0" y="138.0" font-size="12" font-weight="bold" fill="#ff6b6b" text-anchor="middle">Sr</text><text x="482.0" y="156.0" font-size="7.6" font-weight="normal" fill="#8b98ac" text-anchor="middle">crimson</text><path d="M 530 118 Q 536 74 540 62 Q 544 74 550 118 Q 540 104 530 118 Z" fill="#63d39b" stroke="#63d39b" stroke-width="1" stroke-linejoin="round"/><text x="540.0" y="138.0" font-size="12" font-weight="bold" fill="#63d39b" text-anchor="middle">Ba</text><text x="540.0" y="156.0" font-size="7.6" font-weight="normal" fill="#8b98ac" text-anchor="middle">apple green</text><text x="300.0" y="210.0" font-size="9" font-weight="normal" fill="#4db8e8" text-anchor="middle">low ionisation energy: the flame excites the valence electron; its relaxation emits a characteristic line</text><text x="300.0" y="230.0" font-size="9" font-weight="normal" fill="#8b98ac" text-anchor="middle">Be and Mg give no colour — their electrons are bound too tightly for a Bunsen flame to excite</text></g></svg>