<svg xmlns="http://www.w3.org/2000/svg" viewBox="0 0 900 520" role="img"><style>.bg{fill:#0e1626}.card{fill:#111c30;stroke:#334a6b;stroke-width:2}.t{fill:#eaf2ff;font:600 22px -apple-system,BlinkMacSystemFont,Segoe UI,sans-serif}.s{fill:#a9bdd5;font:500 16px -apple-system,BlinkMacSystemFont,Segoe UI,sans-serif}.a{stroke:#47d7ff;stroke-width:3;fill:none;marker-end:url(#m)}.hot{fill:#ffb86b}.cyan{fill:#5de1ff}.green{fill:#78e6ad}.line{stroke:#7891b2;stroke-width:2;fill:none}</style><defs><marker id="m" markerWidth="10" markerHeight="10" refX="8" refY="3" orient="auto"><path d="M0,0 L0,6 L9,3 z" fill="#47d7ff"/></marker></defs><rect class="bg" width="900" height="520" rx="20"/><text class="t" x="42" y="48">Froth flotation</text><path class="card" d="M170 100 H730 L680 430 H220 Z"/><path class="line" d="M220 210 C360 190 520 230 680 200"/><text class="s" x="250" y="245">water + ore pulp</text><circle cx="290" cy="145" r="32" fill="none" stroke="#47d7ff" stroke-width="3"/><circle cx="290" cy="170" r="7" class="hot"/><circle cx="350" cy="130" r="32" fill="none" stroke="#47d7ff" stroke-width="3"/><circle cx="350" cy="155" r="7" class="hot"/><circle cx="420" cy="155" r="32" fill="none" stroke="#47d7ff" stroke-width="3"/><circle cx="420" cy="180" r="7" class="hot"/><circle cx="490" cy="125" r="32" fill="none" stroke="#47d7ff" stroke-width="3"/><circle cx="490" cy="150" r="7" class="hot"/><circle cx="565" cy="150" r="32" fill="none" stroke="#47d7ff" stroke-width="3"/><circle cx="565" cy="175" r="7" class="hot"/><circle cx="625" cy="135" r="32" fill="none" stroke="#47d7ff" stroke-width="3"/><circle cx="625" cy="160" r="7" class="hot"/><path class="a" d="M450 390 L450 230"/><text class="s" x="470" y="330">air bubbles carry hydrophobic sulphide</text><text class="s" x="260" y="95">collector + frother</text><text class="s" x="250" y="475">hydrophilic gangue remains in aqueous phase</text></svg>