<svg xmlns="http://www.w3.org/2000/svg" viewBox="0 0 860 420" role="img"><style>.bg{fill:#0e1626}.card{fill:#111c30;stroke:#334a6b;stroke-width:2}.t{fill:#eaf2ff;font:600 22px -apple-system,BlinkMacSystemFont,Segoe UI,sans-serif}.s{fill:#a9bdd5;font:500 16px -apple-system,BlinkMacSystemFont,Segoe UI,sans-serif}.a{stroke:#47d7ff;stroke-width:3;fill:none;marker-end:url(#m)}.hot{fill:#ffb86b}.cyan{fill:#5de1ff}.green{fill:#78e6ad}.line{stroke:#7891b2;stroke-width:2;fill:none}</style><defs><marker id="m" markerWidth="10" markerHeight="10" refX="8" refY="3" orient="auto"><path d="M0,0 L0,6 L9,3 z" fill="#47d7ff"/></marker></defs><rect class="bg" width="860" height="420" rx="20"/><text class="t" x="42" y="48">Gravity separation / shaking table</text><path class="line" d="M90 150 L760 290"/><path class="line" d="M100 120 L770 260"/><rect class="card" x="230" y="150" width="16" height="70" rx="4"/><rect class="card" x="350" y="175" width="16" height="70" rx="4"/><rect class="card" x="470" y="200" width="16" height="70" rx="4"/><rect class="card" x="590" y="225" width="16" height="70" rx="4"/><path class="a" d="M160 90 C280 130 430 150 700 180"/><text class="s" x="120" y="80">water flow</text><circle cx="260" cy="185" r="9" class="hot"/><circle cx="340" cy="205" r="9" class="hot"/><circle cx="515" cy="245" r="7" class="cyan"/><circle cx="625" cy="275" r="7" class="cyan"/><text class="s" x="200" y="340">heavy ore retained near riffles</text><text class="s" x="545" y="375">lighter gangue washed farther</text></svg>