<svg xmlns="http://www.w3.org/2000/svg" viewBox="0 0 900 540" role="img"><style>.bg{fill:#0e1626}.card{fill:#111c30;stroke:#334a6b;stroke-width:2}.t{fill:#eaf2ff;font:600 22px -apple-system,BlinkMacSystemFont,Segoe UI,sans-serif}.s{fill:#a9bdd5;font:500 16px -apple-system,BlinkMacSystemFont,Segoe UI,sans-serif}.a{stroke:#47d7ff;stroke-width:3;fill:none;marker-end:url(#m)}.hot{fill:#ffb86b}.cyan{fill:#5de1ff}.green{fill:#78e6ad}.line{stroke:#7891b2;stroke-width:2;fill:none}</style><defs><marker id="m" markerWidth="10" markerHeight="10" refX="8" refY="3" orient="auto"><path d="M0,0 L0,6 L9,3 z" fill="#47d7ff"/></marker></defs><rect class="bg" width="900" height="540" rx="20"/><text class="t" x="42" y="48">Hall–Héroult cell</text><path class="card" d="M130 100 H770 L710 480 H190 Z"/><path d="M185 300 H715 L690 450 H210 Z" fill="#1f6174" opacity=".75"/><path d="M205 410 H695 V470 H205 Z" fill="#9fd4de"/><text class="s" x="370" y="445">molten Al cathode pool</text><rect x="280" y="70" width="55" height="250" fill="#2d3748" stroke="#7aa0c4" stroke-width="2"/><text class="s" x="270" y="55">C anode</text><rect x="390" y="70" width="55" height="250" fill="#2d3748" stroke="#7aa0c4" stroke-width="2"/><text class="s" x="380" y="55">C anode</text><rect x="500" y="70" width="55" height="250" fill="#2d3748" stroke="#7aa0c4" stroke-width="2"/><text class="s" x="490" y="55">C anode</text><rect x="610" y="70" width="55" height="250" fill="#2d3748" stroke="#7aa0c4" stroke-width="2"/><text class="s" x="600" y="55">C anode</text><text class="s" x="260" y="350">cryolite-rich fluoride bath + dissolved Al₂O₃</text><path class="a" d="M460 360 L460 420"/><text class="s" x="520" y="220">O-containing ions → anodes; C → CO₂/CO</text></svg>