<svg xmlns="http://www.w3.org/2000/svg" width="1600" height="900" viewBox="0 0 1600 900"><defs><pattern id="g" width="40" height="40" patternUnits="userSpaceOnUse"><path d="M40 0H0V40" fill="none" stroke="#1e2b40" stroke-width="1"/></pattern><linearGradient id="c" x1="0" x2="1"><stop stop-color="#22d3ee"/><stop offset="1" stop-color="#0891b2"/></linearGradient><linearGradient id="o" x1="0" x2="1"><stop stop-color="#fb923c"/><stop offset="1" stop-color="#b45309"/></linearGradient></defs><rect width="1600" height="900" fill="#0b1220"/><rect width="1600" height="900" fill="url(#g)"/><rect x="38" y="38" width="1524" height="824" rx="24" fill="none" stroke="#40546f" stroke-width="3"/><text x="80" y="105" fill="#d8e7f5" font-family="Arial,sans-serif" font-size="56" font-weight="800">Lead from Galena</text><text x="82" y="150" fill="#8aa0b5" font-family="Arial,sans-serif" font-size="25">Control roasting so oxide/sulphate and residual sulphide can be converted efficiently.</text><rect x="70" y="270" width="300" height="190" rx="22" fill="#101b2e" stroke="#cbd5e1" stroke-width="4"/><text x="220.0" y="325" text-anchor="middle" fill="#cbd5e1" font-family="Arial" font-size="30" font-weight="700">PbS CONCENTRATE</text><text x="220.0" y="362" text-anchor="middle" fill="#8aa0b5" font-family="Arial" font-size="20">froth flotation</text><path d="M370 365 L520 365" stroke="#22d3ee" stroke-width="10" fill="none"/><path d="M502 347 L520 365 L502 383" stroke="#22d3ee" stroke-width="10" fill="none"/><rect x="520" y="270" width="300" height="190" rx="22" fill="#101b2e" stroke="#fb923c" stroke-width="4"/><text x="670.0" y="325" text-anchor="middle" fill="#fb923c" font-family="Arial" font-size="30" font-weight="700">ROAST</text><text x="670.0" y="362" text-anchor="middle" fill="#8aa0b5" font-family="Arial" font-size="20">PbO / PbSO₄</text><path d="M820 365 L970 365" stroke="#22d3ee" stroke-width="10" fill="none"/><path d="M952 347 L970 365 L952 383" stroke="#22d3ee" stroke-width="10" fill="none"/><rect x="970" y="270" width="300" height="190" rx="22" fill="#101b2e" stroke="#fb923c" stroke-width="4"/><text x="1120.0" y="325" text-anchor="middle" fill="#fb923c" font-family="Arial" font-size="30" font-weight="700">REDUCE / SELF-REDUCE</text><text x="1120.0" y="362" text-anchor="middle" fill="#8aa0b5" font-family="Arial" font-size="20">crude Pb</text><path d="M1270 365 L1420 365" stroke="#22d3ee" stroke-width="10" fill="none"/><path d="M1402 347 L1420 365 L1402 383" stroke="#22d3ee" stroke-width="10" fill="none"/><rect x="1270" y="550" width="300" height="170" rx="22" fill="#101b2e" stroke="#22d3ee" stroke-width="4"/><text x="1420.0" y="605" text-anchor="middle" fill="#22d3ee" font-family="Arial" font-size="30" font-weight="700">REFINE</text><text x="1420.0" y="642" text-anchor="middle" fill="#8aa0b5" font-family="Arial" font-size="20">soften · Parkes · electro</text></svg>