<svg xmlns="http://www.w3.org/2000/svg" viewBox="0 0 900 530" role="img"><style>.bg{fill:#0e1626}.card{fill:#111c30;stroke:#334a6b;stroke-width:2}.t{fill:#eaf2ff;font:600 22px -apple-system,BlinkMacSystemFont,Segoe UI,sans-serif}.s{fill:#a9bdd5;font:500 16px -apple-system,BlinkMacSystemFont,Segoe UI,sans-serif}.a{stroke:#47d7ff;stroke-width:3;fill:none;marker-end:url(#m)}.hot{fill:#ffb86b}.cyan{fill:#5de1ff}.green{fill:#78e6ad}.line{stroke:#7891b2;stroke-width:2;fill:none}</style><defs><marker id="m" markerWidth="10" markerHeight="10" refX="8" refY="3" orient="auto"><path d="M0,0 L0,6 L9,3 z" fill="#47d7ff"/></marker></defs><rect class="bg" width="900" height="530" rx="20"/><text class="t" x="42" y="48">Magnesium fused-salt cell</text><rect class="card" x="140" y="100" width="620" height="360" rx="20"/><path d="M165 190 H735 V430 H165 Z" fill="#23465c"/><rect x="180" y="320" width="545" height="90" fill="#c89162" opacity=".65"/><rect x="300" y="70" width="42" height="250" fill="#303b4f"/><text class="s" x="292" y="58">C anode</text><rect x="410" y="70" width="42" height="250" fill="#303b4f"/><text class="s" x="402" y="58">C anode</text><rect x="520" y="70" width="42" height="250" fill="#303b4f"/><text class="s" x="512" y="58">C anode</text><rect x="630" y="70" width="42" height="250" fill="#303b4f"/><text class="s" x="622" y="58">C anode</text><text class="s" x="260" y="235">molten MgCl₂ + co-salts</text><text class="s" x="250" y="375">Mg(l) layer / collection</text><text class="s" x="25" y="300">steel cathode wall</text><path class="a" d="M210 290 L165 290"/><text class="s" x="600" y="485">Cl₂ released at anodes; air excluded</text></svg>