<svg xmlns="http://www.w3.org/2000/svg" width="1600" height="900" viewBox="0 0 1600 900"><defs><pattern id="g" width="40" height="40" patternUnits="userSpaceOnUse"><path d="M40 0H0V40" fill="none" stroke="#1e2b40" stroke-width="1"/></pattern><linearGradient id="c" x1="0" x2="1"><stop stop-color="#22d3ee"/><stop offset="1" stop-color="#0891b2"/></linearGradient><linearGradient id="o" x1="0" x2="1"><stop stop-color="#fb923c"/><stop offset="1" stop-color="#b45309"/></linearGradient></defs><rect width="1600" height="900" fill="#0b1220"/><rect width="1600" height="900" fill="url(#g)"/><rect x="38" y="38" width="1524" height="824" rx="24" fill="none" stroke="#40546f" stroke-width="3"/><text x="80" y="105" fill="#d8e7f5" font-family="Arial,sans-serif" font-size="56" font-weight="800">Flux → Slag</text><text x="82" y="150" fill="#8aa0b5" font-family="Arial,sans-serif" font-size="25">Convert unwanted gangue into a separate, fluid phase.</text><rect x="130" y="300" width="320" height="180" rx="22" fill="#101b2e" stroke="#cbd5e1" stroke-width="4"/><text x="290.0" y="355" text-anchor="middle" fill="#cbd5e1" font-family="Arial" font-size="30" font-weight="700">ACIDIC GANGUE</text><text x="290.0" y="392" text-anchor="middle" fill="#8aa0b5" font-family="Arial" font-size="20">SiO₂</text><rect x="640" y="300" width="320" height="180" rx="22" fill="#101b2e" stroke="#fb923c" stroke-width="4"/><text x="800.0" y="355" text-anchor="middle" fill="#fb923c" font-family="Arial" font-size="30" font-weight="700">BASIC FLUX</text><text x="800.0" y="392" text-anchor="middle" fill="#8aa0b5" font-family="Arial" font-size="20">CaO</text><rect x="1150" y="300" width="320" height="180" rx="22" fill="#101b2e" stroke="#22d3ee" stroke-width="4"/><text x="1310.0" y="355" text-anchor="middle" fill="#22d3ee" font-family="Arial" font-size="30" font-weight="700">LIQUID SLAG</text><text x="1310.0" y="392" text-anchor="middle" fill="#8aa0b5" font-family="Arial" font-size="20">CaSiO₃</text><path d="M450 390 L640 390" stroke="#fb923c" stroke-width="10" fill="none"/><path d="M622 372 L640 390 L622 408" stroke="#fb923c" stroke-width="10" fill="none"/><path d="M960 390 L1150 390" stroke="#22d3ee" stroke-width="10" fill="none"/><path d="M1132 372 L1150 390 L1132 408" stroke="#22d3ee" stroke-width="10" fill="none"/><text x="800" y="590" text-anchor="middle" fill="#d8e7f5" font-size="34" font-family="Arial">SiO₂ + CaO → CaSiO₃(l)</text><text x="800" y="655" text-anchor="middle" fill="#8aa0b5" font-size="25" font-family="Arial">Lux–Flood: oxide-ion acceptor = acid · donor = base</text></svg>